<svg width="46" height="46" viewBox="0 0 46 46" fill="none" xmlns="http://www.w3.org/2000/svg">
<path d="M23 45.5C35.4264 45.5 45.5 35.4264 45.5 23C45.5 10.5736 35.4264 0.5 23 0.5C10.5736 0.5 0.5 10.5736 0.5 23C0.5 35.4264 10.5736 45.5 23 45.5Z" fill="#37474F"/>
<path d="M33.0597 31.559C30.2 33.566 25.9092 34.7945 22.4375 34.7945C17.465 34.7945 13.0415 32.918 9.63498 30.0065C9.36498 29.7477 9.63498 29.489 9.90948 29.6195C13.7271 31.7153 18.0149 32.8062 22.37 32.7897C25.502 32.7897 29.4507 32.1417 32.6525 30.848C33.1272 30.7197 33.5367 31.2372 33.0597 31.559ZM34.0812 30.2022C33.7415 29.7477 31.6962 30.0065 30.812 30.0717C30.542 30.0717 30.4745 29.8782 30.7445 29.6847C32.3105 28.5822 34.9655 28.9085 35.2377 29.2955C35.5122 29.6847 35.1702 32.207 33.6717 33.3702C33.4692 33.566 33.197 33.4377 33.3342 33.242C33.6717 32.4657 34.421 30.6545 34.0812 30.2022Z" fill="#FFB300"/>
<path d="M31.2215 25.5425C30.5398 24.701 29.8603 23.99 29.8603 22.3722V17.0037C29.8603 14.7403 29.8603 12.7355 28.157 11.183C26.7958 9.95 24.548 9.5 22.7795 9.5C19.0333 9.5 15.764 10.9243 14.9495 14.9338C14.8798 15.386 15.2195 15.5817 15.4918 15.6447L18.9658 16.034C19.3033 16.034 19.5103 15.71 19.5778 15.386C19.85 14.0293 21.0065 13.3812 22.3678 13.3812C23.1193 13.3812 24.5503 13.7705 24.5503 15.323V17.2625C22.3678 17.2625 20.0548 17.2625 18.1468 18.0387C15.9013 18.9455 14.3353 20.8197 14.3353 23.603C14.3353 27.158 16.6505 28.9062 19.6453 28.9062C22.1653 28.9062 23.6638 28.3235 25.637 26.4492C26.2513 27.3538 26.5235 27.8713 27.68 28.841C27.9523 28.9715 28.2943 28.9715 28.4968 28.778C29.1785 28.193 30.4723 27.095 31.2193 26.5122C31.5613 26.2535 31.4938 25.8665 31.2193 25.5425H31.2215ZM24.4805 20.561C24.4805 21.8548 24.413 25.025 21.0763 25.025C19.0333 25.025 19.0333 23.0855 19.0333 23.0855C19.0333 20.174 21.8908 19.85 24.4783 19.85V20.561H24.4805Z" fill="white"/>
</svg>
