<svg width="41" height="41" viewBox="0 0 41 41" fill="none" xmlns="http://www.w3.org/2000/svg">
<path d="M20.837 20.1583L18.4282 22.5671C17.0957 23.8996 17.0957 26.0692 18.4282 27.4017C19.7607 28.7342 21.9303 28.7342 23.2628 27.4017L27.0554 23.6092C29.7204 20.9442 29.7204 16.6221 27.0554 13.94C24.3904 11.275 20.0683 11.275 17.3862 13.94L13.252 18.0742C10.9629 20.3633 10.9629 24.0704 13.252 26.3596" stroke="#ED1C24" stroke-width="2.5625" stroke-linecap="round" stroke-linejoin="round"/>
<path d="M15.3763 37.5833H25.6263C34.168 37.5833 37.5846 34.1666 37.5846 25.625V15.375C37.5846 6.83329 34.168 3.41663 25.6263 3.41663H15.3763C6.83464 3.41663 3.41797 6.83329 3.41797 15.375V25.625C3.41797 34.1666 6.83464 37.5833 15.3763 37.5833Z" stroke="#ED1C24" stroke-width="2.5625" stroke-linecap="round" stroke-linejoin="round"/>
</svg>
