<svg width="22" height="22" viewBox="0 0 22 22" fill="none" xmlns="http://www.w3.org/2000/svg">
<path d="M12.6697 8.41677V11.0414H15.0228C15.2038 11.0414 15.2943 11.2224 15.2943 11.4034L14.9323 13.1229C14.9323 13.2134 14.7512 13.3039 14.6607 13.3039H12.6697V19.9106H9.95459V13.3944H8.41604C8.23503 13.3944 8.14453 13.3039 8.14453 13.1229V11.4034C8.14453 11.2224 8.23503 11.1319 8.41604 11.1319H9.95459V8.14526C9.95459 6.60671 11.1311 5.43018 12.6697 5.43018H15.1133C15.2943 5.43018 15.3848 5.52068 15.3848 5.70168V7.87375C15.3848 8.05476 15.2943 8.14526 15.1133 8.14526H12.9412C12.7602 8.14526 12.6697 8.23577 12.6697 8.41677Z" stroke="white" stroke-width="1.20671" stroke-miterlimit="10" stroke-linecap="round"/>
<path d="M13.5759 19.9105H8.14575C3.62061 19.9105 1.81055 18.1005 1.81055 13.5753V8.14514C1.81055 3.62 3.62061 1.80994 8.14575 1.80994H13.5759C18.1011 1.80994 19.9111 3.62 19.9111 8.14514V13.5753C19.9111 18.1005 18.1011 19.9105 13.5759 19.9105Z" stroke="white" stroke-width="1.20671" stroke-linecap="round" stroke-linejoin="round"/>
</svg>
