<svg width="60" height="60" viewBox="0 0 60 60" fill="none" xmlns="http://www.w3.org/2000/svg">
<circle cx="30" cy="30" r="29.25" fill="#ED1C24" stroke="white" stroke-width="1.5"/>
<path d="M28.6793 36.588V39.5485C28.6793 42.0568 26.3459 44.0839 23.473 44.0839C20.6001 44.0839 18.2521 42.0568 18.2521 39.5485V36.588C18.2521 39.0963 20.5855 40.8755 23.473 40.8755C26.3459 40.8755 28.6793 39.0818 28.6793 36.588Z" stroke="white" stroke-width="1.5" stroke-linecap="round" stroke-linejoin="round"/>
<path d="M28.6771 32.5771C28.6771 33.3063 28.4729 33.9771 28.1229 34.5604C27.2625 35.975 25.4979 36.8646 23.4562 36.8646C21.4146 36.8646 19.65 35.9604 18.7896 34.5604C18.4396 33.9771 18.2355 33.3063 18.2355 32.5771C18.2355 31.323 18.8188 30.2 19.7521 29.3834C20.7 28.5521 21.9979 28.0563 23.4416 28.0563C24.8854 28.0563 26.1834 28.5667 27.1313 29.3834C28.0938 30.1855 28.6771 31.323 28.6771 32.5771Z" stroke="white" stroke-width="1.5" stroke-linecap="round" stroke-linejoin="round"/>
<path d="M28.6793 32.577V36.5874C28.6793 39.0957 26.3459 40.8749 23.473 40.8749C20.6001 40.8749 18.2521 39.0812 18.2521 36.5874V32.577C18.2521 30.0687 20.5855 28.0416 23.473 28.0416C24.9167 28.0416 26.2147 28.552 27.1626 29.3686C28.096 30.1853 28.6793 31.3228 28.6793 32.577Z" stroke="white" stroke-width="1.5" stroke-linecap="round" stroke-linejoin="round"/>
<path d="M45.0834 27.9978V31.002C45.0834 31.8041 44.4417 32.4603 43.625 32.4895H40.7667C39.1917 32.4895 37.748 31.3374 37.6167 29.7624C37.5292 28.8437 37.8792 27.9832 38.4917 27.3853C39.0312 26.8311 39.775 26.5103 40.5917 26.5103H43.625C44.4417 26.5395 45.0834 27.1957 45.0834 27.9978Z" stroke="white" stroke-width="1.5" stroke-linecap="round" stroke-linejoin="round"/>
<path d="M15.9168 27.3124V24.3958C15.9168 20.4291 18.3085 17.6583 22.0272 17.1916C22.4064 17.1333 22.8001 17.1041 23.2085 17.1041H36.3335C36.7126 17.1041 37.0772 17.1187 37.4272 17.177C41.1897 17.6145 43.6251 20.3999 43.6251 24.3958V26.5104H40.5918C39.7751 26.5104 39.0314 26.8312 38.4918 27.3853C37.8793 27.9832 37.5293 28.8437 37.6168 29.7624C37.7481 31.3374 39.1918 32.4895 40.7668 32.4895H43.6251V34.6041C43.6251 38.9791 40.7085 41.8958 36.3335 41.8958H32.6876" stroke="white" stroke-width="1.5" stroke-linecap="round" stroke-linejoin="round"/>
</svg>
