<svg width="60" height="60" viewBox="0 0 60 60" fill="none" xmlns="http://www.w3.org/2000/svg">
<circle cx="30" cy="30" r="29.25" fill="#ED1C24" stroke="white" stroke-width="1.5"/>
<path d="M32.0762 42.5H25.5762" stroke="white" stroke-width="1.5" stroke-miterlimit="10" stroke-linecap="round" stroke-linejoin="round"/>
<path d="M37.9912 42.4999C40.1687 42.5162 42.265 41.7037 43.8737 40.2412C49.1875 35.5937 46.3437 26.2662 39.34 25.3887C36.8375 10.2112 14.9487 15.9637 20.1325 30.4099" stroke="white" stroke-width="1.5" stroke-miterlimit="10" stroke-linecap="round" stroke-linejoin="round"/>
<path d="M22.8298 31.0762C21.9685 30.6374 21.0098 30.4099 20.051 30.4262C12.4785 30.9624 12.4948 41.9799 20.051 42.5162" stroke="white" stroke-width="1.5" stroke-miterlimit="10" stroke-linecap="round" stroke-linejoin="round"/>
<path d="M36.7076 26.0712C37.5526 25.6487 38.4626 25.4212 39.4051 25.405" stroke="white" stroke-width="1.5" stroke-miterlimit="10" stroke-linecap="round" stroke-linejoin="round"/>
<path d="M27.9219 34.6855H29.1426C29.1035 35.151 28.9733 35.5661 28.752 35.9307C28.5306 36.292 28.2197 36.5768 27.8193 36.7852C27.4189 36.9935 26.9323 37.0977 26.3594 37.0977C25.9199 37.0977 25.5244 37.0195 25.1729 36.8633C24.8213 36.7038 24.5202 36.4792 24.2695 36.1895C24.0189 35.8965 23.8268 35.5433 23.6934 35.1299C23.5632 34.7165 23.498 34.2542 23.498 33.7432V33.1523C23.498 32.6413 23.5648 32.179 23.6982 31.7656C23.835 31.3522 24.0303 30.999 24.2842 30.7061C24.5381 30.4098 24.8424 30.1836 25.1973 30.0273C25.5553 29.8711 25.9574 29.793 26.4033 29.793C26.9697 29.793 27.4482 29.8971 27.8389 30.1055C28.2295 30.3138 28.5322 30.6019 28.7471 30.9697C28.9652 31.3376 29.0986 31.7591 29.1475 32.2344H27.9268C27.8942 31.9284 27.8226 31.6663 27.7119 31.4482C27.6045 31.2301 27.445 31.0641 27.2334 30.9502C27.0218 30.833 26.7451 30.7744 26.4033 30.7744C26.1234 30.7744 25.8792 30.8265 25.6709 30.9307C25.4626 31.0348 25.2884 31.1878 25.1484 31.3896C25.0085 31.5915 24.9027 31.8405 24.8311 32.1367C24.7627 32.4297 24.7285 32.765 24.7285 33.1426V33.7432C24.7285 34.1012 24.7594 34.4268 24.8213 34.7197C24.8864 35.0094 24.984 35.2585 25.1143 35.4668C25.2477 35.6751 25.417 35.8363 25.6221 35.9502C25.8271 36.0641 26.0729 36.1211 26.3594 36.1211C26.7077 36.1211 26.9893 36.0658 27.2041 35.9551C27.4222 35.8444 27.5866 35.6833 27.6973 35.4717C27.8112 35.2568 27.8861 34.9948 27.9219 34.6855ZM35.9248 33.25V33.6406C35.9248 34.1777 35.8548 34.6595 35.7148 35.0859C35.5749 35.5124 35.3747 35.8753 35.1143 36.1748C34.8571 36.4743 34.5479 36.7038 34.1865 36.8633C33.8252 37.0195 33.4248 37.0977 32.9854 37.0977C32.5492 37.0977 32.1504 37.0195 31.7891 36.8633C31.431 36.7038 31.1201 36.4743 30.8564 36.1748C30.5928 35.8753 30.3877 35.5124 30.2412 35.0859C30.098 34.6595 30.0264 34.1777 30.0264 33.6406V33.25C30.0264 32.7129 30.098 32.2327 30.2412 31.8096C30.3844 31.3831 30.5863 31.0202 30.8467 30.7207C31.1104 30.418 31.4212 30.1885 31.7793 30.0322C32.1406 29.8727 32.5394 29.793 32.9756 29.793C33.415 29.793 33.8154 29.8727 34.1768 30.0322C34.5381 30.1885 34.849 30.418 35.1094 30.7207C35.3698 31.0202 35.57 31.3831 35.71 31.8096C35.8532 32.2327 35.9248 32.7129 35.9248 33.25ZM34.6992 33.6406V33.2402C34.6992 32.8431 34.6602 32.4932 34.582 32.1904C34.5072 31.8844 34.3949 31.6289 34.2451 31.4238C34.0986 31.2155 33.918 31.0592 33.7031 30.9551C33.4883 30.8477 33.2458 30.7939 32.9756 30.7939C32.7054 30.7939 32.4645 30.8477 32.2529 30.9551C32.0413 31.0592 31.8607 31.2155 31.7109 31.4238C31.5645 31.6289 31.4521 31.8844 31.374 32.1904C31.2959 32.4932 31.2568 32.8431 31.2568 33.2402V33.6406C31.2568 34.0378 31.2959 34.3893 31.374 34.6953C31.4521 35.0013 31.5661 35.2601 31.7158 35.4717C31.8688 35.68 32.0511 35.8379 32.2627 35.9453C32.4743 36.0495 32.7152 36.1016 32.9854 36.1016C33.2588 36.1016 33.5013 36.0495 33.7129 35.9453C33.9245 35.8379 34.1035 35.68 34.25 35.4717C34.3965 35.2601 34.5072 35.0013 34.582 34.6953C34.6602 34.3893 34.6992 34.0378 34.6992 33.6406Z" fill="white"/>
<path d="M41.3027 39.0625V40H36.5371V39.1943L38.8516 36.6699C39.1055 36.3835 39.3057 36.1361 39.4521 35.9277C39.5986 35.7194 39.7012 35.5322 39.7598 35.3662C39.8216 35.1969 39.8525 35.0326 39.8525 34.873C39.8525 34.6484 39.8102 34.4515 39.7256 34.2822C39.6442 34.1097 39.5238 33.9746 39.3643 33.877C39.2048 33.776 39.0111 33.7256 38.7832 33.7256C38.5195 33.7256 38.2982 33.7826 38.1191 33.8965C37.9401 34.0104 37.805 34.1683 37.7139 34.3701C37.6227 34.5687 37.5771 34.7965 37.5771 35.0537H36.4004C36.4004 34.6403 36.4948 34.2627 36.6836 33.9209C36.8724 33.5758 37.1458 33.3024 37.5039 33.1006C37.862 32.8955 38.2933 32.793 38.7979 32.793C39.2731 32.793 39.6768 32.8727 40.0088 33.0322C40.3408 33.1917 40.5931 33.418 40.7656 33.7109C40.9414 34.0039 41.0293 34.3506 41.0293 34.751C41.0293 34.9723 40.9935 35.1921 40.9219 35.4102C40.8503 35.6283 40.7477 35.8464 40.6143 36.0645C40.484 36.2793 40.3294 36.4958 40.1504 36.7139C39.9714 36.9287 39.7744 37.1468 39.5596 37.3682L38.0215 39.0625H41.3027Z" fill="white"/>
</svg>
