<svg width="29" height="29" viewBox="0 0 29 29" fill="none" xmlns="http://www.w3.org/2000/svg">
<path d="M12.9897 2.96022C13.8356 2.24731 15.201 2.24731 16.0226 2.96022L17.9318 4.59147C18.2943 4.89356 18.9831 5.14731 19.4664 5.14731H21.5206C22.8014 5.14731 23.8526 6.19856 23.8526 7.47939V9.53356C23.8526 10.0169 24.1064 10.6936 24.4085 11.0561L26.0397 12.9652C26.7526 13.8111 26.7526 15.1765 26.0397 15.9981L24.4085 17.9073C24.1064 18.2698 23.8526 18.9465 23.8526 19.4298V21.484C23.8526 22.7648 22.8014 23.8161 21.5206 23.8161H19.4664C18.9831 23.8161 18.3064 24.0698 17.9439 24.3719L16.0347 26.0031C15.1889 26.7161 13.8235 26.7161 13.0018 26.0031L11.0926 24.3719C10.7301 24.0698 10.0414 23.8161 9.57014 23.8161H7.45556C6.17473 23.8161 5.12348 22.7648 5.12348 21.484V19.4177C5.12348 18.9465 4.88181 18.2577 4.57973 17.9073L2.94848 15.9861C2.24764 15.1523 2.24764 13.799 2.94848 12.9652L4.57973 11.044C4.88181 10.6815 5.12348 10.0048 5.12348 9.53356V7.49147C5.12348 6.21064 6.17473 5.15939 7.45556 5.15939H9.54598C10.0293 5.15939 10.706 4.90564 11.0685 4.60356L12.9897 2.96022Z" stroke="white" stroke-width="1.8125" stroke-linecap="round" stroke-linejoin="round"/>
<path d="M14.5 9.82361V15.6599" stroke="white" stroke-width="1.8125" stroke-linecap="round" stroke-linejoin="round"/>
<path d="M14.4932 19.3334H14.504" stroke="white" stroke-width="2.41667" stroke-linecap="round" stroke-linejoin="round"/>
</svg>
