<svg width="29" height="29" viewBox="0 0 29 29" fill="none" xmlns="http://www.w3.org/2000/svg">
<path d="M12.9892 2.96022C13.8351 2.24731 15.2005 2.24731 16.0222 2.96022L17.9313 4.59147C18.2938 4.89356 18.9826 5.14731 19.4659 5.14731H21.5201C22.8009 5.14731 23.8522 6.19856 23.8522 7.47939V9.53356C23.8522 10.0169 24.1059 10.6936 24.408 11.0561L26.0392 12.9652C26.7522 13.8111 26.7522 15.1765 26.0392 15.9981L24.408 17.9073C24.1059 18.2698 23.8522 18.9465 23.8522 19.4298V21.484C23.8522 22.7648 22.8009 23.8161 21.5201 23.8161H19.4659C18.9826 23.8161 18.3059 24.0698 17.9434 24.3719L16.0342 26.0031C15.1884 26.7161 13.823 26.7161 13.0013 26.0031L11.0922 24.3719C10.7297 24.0698 10.0409 23.8161 9.56966 23.8161H7.45507C6.17424 23.8161 5.12299 22.7648 5.12299 21.484V19.4177C5.12299 18.9465 4.88132 18.2577 4.57924 17.9073L2.94799 15.9861C2.24715 15.1523 2.24715 13.799 2.94799 12.9652L4.57924 11.044C4.88132 10.6815 5.12299 10.0048 5.12299 9.53356V7.49147C5.12299 6.21064 6.17424 5.15939 7.45507 5.15939H9.54549C10.0288 5.15939 10.7055 4.90564 11.068 4.60356L12.9892 2.96022Z" stroke="#ED1C24" stroke-width="1.8125" stroke-linecap="round" stroke-linejoin="round"/>
<path d="M14.5 9.82361V15.6599" stroke="#ED1C24" stroke-width="1.8125" stroke-linecap="round" stroke-linejoin="round"/>
<path d="M14.4937 19.3334H14.5045" stroke="#ED1C24" stroke-width="2.41667" stroke-linecap="round" stroke-linejoin="round"/>
</svg>
