<svg width="22" height="22" viewBox="0 0 22 22" fill="none" xmlns="http://www.w3.org/2000/svg">
<path d="M8.04146 19.6566H13.4023C17.8697 19.6566 19.6567 17.8696 19.6567 13.4022V8.04134C19.6567 3.57394 17.8697 1.78699 13.4023 1.78699H8.04146C3.57407 1.78699 1.78711 3.57394 1.78711 8.04134V13.4022C1.78711 17.8696 3.57407 19.6566 8.04146 19.6566Z" stroke="white" stroke-width="1.34022" stroke-linecap="round" stroke-linejoin="round"/>
<path d="M10.7209 13.849C12.448 13.849 13.8481 12.4489 13.8481 10.7218C13.8481 8.99469 12.448 7.5946 10.7209 7.5946C8.99383 7.5946 7.59375 8.99469 7.59375 10.7218C7.59375 12.4489 8.99383 13.849 10.7209 13.849Z" stroke="white" stroke-width="1.34022" stroke-linecap="round" stroke-linejoin="round"/>
<path d="M15.7578 6.25436H15.7681" stroke="white" stroke-width="1.78696" stroke-linecap="round" stroke-linejoin="round"/>
</svg>
