<svg width="48" height="48" viewBox="0 0 48 48" fill="none" xmlns="http://www.w3.org/2000/svg">
<path d="M4 24.7002H15.6C18.66 24.7002 20.76 27.0202 20.76 29.8602V36.3003C20.76 39.1403 18.66 41.4602 15.6 41.4602H9.16003C6.32003 41.4602 4 39.1403 4 36.3003V24.7002" stroke="white" stroke-width="2" stroke-linecap="round" stroke-linejoin="round"/>
<path d="M4 24.7C4 12.6 6.26006 10.6001 13.0601 6.56006" stroke="white" stroke-width="2" stroke-linecap="round" stroke-linejoin="round"/>
<path d="M27.2598 24.7002H38.8597C41.9197 24.7002 44.0198 27.0202 44.0198 29.8602V36.3003C44.0198 39.1403 41.9197 41.4602 38.8597 41.4602H32.4198C29.5798 41.4602 27.2598 39.1403 27.2598 36.3003V24.7002" stroke="white" stroke-width="2" stroke-linecap="round" stroke-linejoin="round"/>
<path d="M27.2598 24.7C27.2598 12.6 29.5197 10.6001 36.3197 6.56006" stroke="white" stroke-width="2" stroke-linecap="round" stroke-linejoin="round"/>
</svg>
